<svg xmlns="http://www.w3.org/2000/svg" xmlns:xlink="http://www.w3.org/1999/xlink" width="1695" height="66" viewBox="0 0 1695 66">
  <defs>
    <filter id="Ellipse_3" x="1629" y="0" width="66" height="66" filterUnits="userSpaceOnUse">
      <feOffset input="SourceAlpha"/>
      <feGaussianBlur stdDeviation="5" result="blur"/>
      <feFlood flood-opacity="0.059"/>
      <feComposite operator="in" in2="blur"/>
      <feComposite in="SourceGraphic"/>
    </filter>
  </defs>
  <g id="menu" transform="translate(-120 -18)">
    <g id="logo">
      <text id="Fixxo." transform="translate(120 63)" fill="#222529" font-size="35" font-family="Poppins-Bold, Poppins" font-weight="700"><tspan x="0" y="0">Fixxo.</tspan></text>
    </g>
    <text id="Home_Contacts" data-name="Home       Contacts" transform="translate(905 55)" fill="#222529" font-size="16" font-family="Poppins-Medium, Poppins" font-weight="500"><tspan x="0" y="0" xml:space="preserve">Home       </tspan><tspan y="0" fill="#ff7373">Contacts</tspan></text>
    <g id="icon">
      <g id="Group_439" data-name="Group 439">
        <g transform="matrix(1, 0, 0, 1, 120, 18)" filter="url(#Ellipse_3)">
          <circle id="Ellipse_3-2" data-name="Ellipse 3" cx="18" cy="18" r="18" transform="translate(1644 15)" fill="#fff"/>
        </g>
        <path id="shopping-bag-line" d="M12.5,6V4.525a3.5,3.5,0,1,0-7,0v3.5a.5.5,0,0,0,1,0V7h4V6h-4V4.525a2.5,2.5,0,0,1,5,0V8a.5.5,0,0,0,1,0V7H15v9H3V7H4.5V6H2V16.045A.955.955,0,0,0,2.955,17h12.09A.955.955,0,0,0,16,16.045V6Z" transform="translate(1773 41.975)"/>
        <circle id="Ellipse_7" data-name="Ellipse 7" cx="8" cy="8" r="8" transform="translate(1787 30)" fill="#ff7373"/>
        <text id="_3" data-name="3" transform="translate(1792 42)" fill="#fff" font-size="11" font-family="Poppins-Medium, Poppins" font-weight="500"><tspan x="0" y="0">3</tspan></text>
      </g>
    </g>
  </g>
</svg>
